<svg xmlns="http://www.w3.org/2000/svg" viewBox="0 0 964.31 308.93"><defs><style>.cls-1,.cls-2,.cls-3,.cls-4{fill:none;stroke-miterlimit:10;stroke-width:7px;}.cls-1{stroke:#009245;}.cls-2{stroke:#29abe2;}.cls-3{stroke:#662d91;}.cls-4{stroke:#d9e021;}</style></defs><title>资源 2</title><g id="图层_2" data-name="图层 2"><g id="图层_1-2" data-name="图层 1"><path class="cls-1" d="M22.56,8.38l6.27,84.19h.65l7.19-56.48H49l7,56.75h.79L62.94,8.38H81.63L71,115H49.74L43.08,71.06h-.66L36,115H14.59L3.87,8.38Z"/><path class="cls-1" d="M139,30.42a15.9,15.9,0,0,1,13.07,6q4.83,6,4.84,19.07T152.4,74.23q-4.52,5.68-13.4,5.68H108.81v7.52a50.35,50.35,0,0,0,.46,7.65,9.61,9.61,0,0,0,1.63,4.42,5.41,5.41,0,0,0,3.21,2,22.93,22.93,0,0,0,5,.46h30.58V115H110a29.09,29.09,0,0,1-9.8-1.45,14.81,14.81,0,0,1-6.67-4.69,20.89,20.89,0,0,1-3.85-8.51A58,58,0,0,1,88.43,87.3V58a57.32,57.32,0,0,1,1.24-12.93,20.89,20.89,0,0,1,3.85-8.51,14.81,14.81,0,0,1,6.67-4.69,29.09,29.09,0,0,1,9.8-1.45ZM108.81,67.77h22a14.4,14.4,0,0,0,3.59-.4,4.15,4.15,0,0,0,2.42-1.72,9.1,9.1,0,0,0,1.31-3.76,43.17,43.17,0,0,0,.39-6.53,46.61,46.61,0,0,0-.33-6.27A8,8,0,0,0,137,45.6a3.78,3.78,0,0,0-2.36-1.52,18.42,18.42,0,0,0-3.85-.33h-14a10.19,10.19,0,0,0-3.92.66,5.16,5.16,0,0,0-2.48,2.24,11.45,11.45,0,0,0-1.24,4.29,57.79,57.79,0,0,0-.33,6.8Z"/><path class="cls-1" d="M212.32,3.5v98.44h23.26V115H169.32V101.94h22.74V16.83H169.32V3.5Z"/><path class="cls-1" d="M315.3,30.42V43.75H277.79a10.15,10.15,0,0,0-3.92.66,4.87,4.87,0,0,0-2.42,2.24A13.5,13.5,0,0,0,270.21,51a51.61,51.61,0,0,0-.39,7V88.75q0,10.16,4.31,12.27,2.1,1.07,13.73,1.06c1.39,0,3.2,0,5.42-.07s5-.07,8.43-.07H315.3V115H271a29.69,29.69,0,0,1-9.87-1.45,14.78,14.78,0,0,1-6.73-4.69,21,21,0,0,1-3.86-8.51A58.59,58.59,0,0,1,249.3,87.3V58a57.91,57.91,0,0,1,1.24-12.93,21,21,0,0,1,3.86-8.51,14.78,14.78,0,0,1,6.73-4.69A29.69,29.69,0,0,1,271,30.42Z"/><path class="cls-1" d="M376.2,30.42a28.66,28.66,0,0,1,9.67,1.45,15.21,15.21,0,0,1,6.73,4.69,21,21,0,0,1,4,8.51A54.73,54.73,0,0,1,397.9,58V87.3a58.59,58.59,0,0,1-1.24,13.06,20.44,20.44,0,0,1-3.93,8.51,15.17,15.17,0,0,1-6.79,4.69A29.3,29.3,0,0,1,376.2,115h-28a30.76,30.76,0,0,1-10.06-1.45,14.7,14.7,0,0,1-6.79-4.69,20.22,20.22,0,0,1-3.79-8.51,60.84,60.84,0,0,1-1.18-13.06V58a60.12,60.12,0,0,1,1.18-12.93,20.22,20.22,0,0,1,3.79-8.51,14.7,14.7,0,0,1,6.79-4.69,30.76,30.76,0,0,1,10.06-1.45ZM346.93,87q0,7.92,1.76,11.42t6.21,3.49h14.38c3,0,5.14-1.16,6.27-3.49s1.7-6,1.7-11.15V58q0-7.51-1.7-10.89c-1.13-2.24-3.23-3.36-6.27-3.36H354.9q-4.44,0-6.21,3.36T346.93,58Z"/><path class="cls-1" d="M455.27,30.42a35.55,35.55,0,0,1,10.06,1.25,14.16,14.16,0,0,1,6.8,4.29,18.8,18.8,0,0,1,3.79,8,56.41,56.41,0,0,1,1.17,12.54V115H459.45V58a51.61,51.61,0,0,0-.39-7,11.43,11.43,0,0,0-1.37-4.36,5.61,5.61,0,0,0-2.49-2.24,9.24,9.24,0,0,0-3.72-.66h-3.14V115H434.62V43.75h-9.28V115H407V30.42Z"/><path class="cls-1" d="M538.26,30.42a15.89,15.89,0,0,1,13.06,6q4.84,6,4.84,19.07t-4.51,18.74q-4.5,5.68-13.39,5.68H508.07v7.52a51.9,51.9,0,0,0,.45,7.65,9.61,9.61,0,0,0,1.64,4.42,5.39,5.39,0,0,0,3.2,2,23,23,0,0,0,5,.46H549V115H509.24a29.14,29.14,0,0,1-9.8-1.45,14.78,14.78,0,0,1-6.66-4.69,20.9,20.9,0,0,1-3.86-8.51,58,58,0,0,1-1.24-13.06V58a57.32,57.32,0,0,1,1.24-12.93,20.9,20.9,0,0,1,3.86-8.51,14.78,14.78,0,0,1,6.66-4.69,29.14,29.14,0,0,1,9.8-1.45ZM508.07,67.77H530a14.54,14.54,0,0,0,3.6-.4A4.13,4.13,0,0,0,536,65.65a9.1,9.1,0,0,0,1.31-3.76,43.17,43.17,0,0,0,.39-6.53,48.65,48.65,0,0,0-.32-6.27,7.91,7.91,0,0,0-1.18-3.49,3.76,3.76,0,0,0-2.35-1.52,18.59,18.59,0,0,0-3.86-.33H516a10.12,10.12,0,0,0-3.92.66,5.14,5.14,0,0,0-2.49,2.24,11.45,11.45,0,0,0-1.24,4.29,58.08,58.08,0,0,0-.32,6.8Z"/><path class="cls-2" d="M688.42,8.38v22h26.27V43.75H688.42V89.8a56.16,56.16,0,0,0,.32,6.8,5.3,5.3,0,0,0,1.83,3.63,8.38,8.38,0,0,0,4.45,1.45c2,.18,4.72.26,8.3.26V115h-13.6A47.79,47.79,0,0,1,679,114a13.55,13.55,0,0,1-6.67-3.5,13.82,13.82,0,0,1-3.46-6.86,52.07,52.07,0,0,1-1-11.09V43.75H648.43V30.42H667.9v-22Z"/><path class="cls-2" d="M775.46,30.42a28.7,28.7,0,0,1,9.67,1.45,15.27,15.27,0,0,1,6.73,4.69,21.11,21.11,0,0,1,4,8.51A54.73,54.73,0,0,1,797.15,58V87.3a58,58,0,0,1-1.24,13.06,20.56,20.56,0,0,1-3.92,8.51,15.2,15.2,0,0,1-6.8,4.69,29.23,29.23,0,0,1-9.73,1.45h-28a30.72,30.72,0,0,1-10.06-1.45,14.73,14.73,0,0,1-6.8-4.69,20.34,20.34,0,0,1-3.79-8.51,61.49,61.49,0,0,1-1.18-13.06V58a60.77,60.77,0,0,1,1.18-12.93,20.34,20.34,0,0,1,3.79-8.51,14.73,14.73,0,0,1,6.8-4.69,30.72,30.72,0,0,1,10.06-1.45ZM746.18,87q0,7.92,1.77,11.42t6.2,3.49h14.38q4.58,0,6.27-3.49t1.7-11.15V58q0-7.51-1.7-10.89t-6.27-3.36H754.15q-4.44,0-6.2,3.36T746.18,58Z"/><path class="cls-3" d="M135.87,188.78A35.19,35.19,0,0,1,145.93,190a14,14,0,0,1,6.79,4.29,18.52,18.52,0,0,1,3.79,8.05,55.66,55.66,0,0,1,1.18,12.53v58.46H140.05v-57a51.77,51.77,0,0,0-.39-7,11.3,11.3,0,0,0-1.38-4.35,5.51,5.51,0,0,0-2.48-2.25,9.24,9.24,0,0,0-3.72-.66h-3.14v71.26H115.22V202.1h-9.28v71.26H87.64V188.78Z"/><path class="cls-3" d="M186.57,188.78l18,55h.65l18.17-55h17.25l-42,116.65h-18l13.59-34.31-29.66-82.34Z"/><path class="cls-4" d="M475.92,188.78v88.94a61.56,61.56,0,0,1-1.18,13.19,20.45,20.45,0,0,1-3.79,8.52,14.33,14.33,0,0,1-6.66,4.61,30.85,30.85,0,0,1-9.94,1.39h-32.8v-13.2h17.91a71.14,71.14,0,0,0,8.29-.39,10,10,0,0,0,5-1.78,7.1,7.1,0,0,0,2.42-4,30.35,30.35,0,0,0,.65-7.06v-5.68h-26a30.76,30.76,0,0,1-10.06-1.45,14.75,14.75,0,0,1-6.79-4.68,20.28,20.28,0,0,1-3.79-8.51A60.94,60.94,0,0,1,408,245.65V216.49a55.71,55.71,0,0,1,1.31-13.13,21.54,21.54,0,0,1,3.92-8.58,14.3,14.3,0,0,1,6.73-4.62,31.15,31.15,0,0,1,9.86-1.38Zm-47.83,58.06q0,7.65,1.63,10.56c1.09,1.93,3.24,2.9,6.47,2.9h19.6V202.1h-14a40.13,40.13,0,0,0-6.8.47,8.35,8.35,0,0,0-4.18,1.84,7.3,7.3,0,0,0-2.16,3.9,30,30,0,0,0-.58,6.59Z"/><path class="cls-4" d="M535,188.78A37.22,37.22,0,0,1,545.12,190a13.9,13.9,0,0,1,6.73,4.16,18.25,18.25,0,0,1,3.79,8,58,58,0,0,1,1.17,12.73v58.46h-51a15.14,15.14,0,0,1-7.64-2,19.23,19.23,0,0,1-6-5.47,25.94,25.94,0,0,1-3.92-8.32,40.29,40.29,0,0,1,0-20.91,27.54,27.54,0,0,1,3.92-8.51,19.49,19.49,0,0,1,6-5.68,14.79,14.79,0,0,1,7.64-2h30.72v-7.26q0-6.6-1.77-8.84c-1.17-1.5-3.2-2.25-6.07-2.25H497.48V188.78Zm-14.9,44.6a28,28,0,0,0-6.67.66,8.61,8.61,0,0,0-4.11,2.18,8.19,8.19,0,0,0-2.09,3.89,24.12,24.12,0,0,0-.59,5.81q0,14.37,5.23,14.38h24.57V233.38Z"/><path class="cls-4" d="M611.57,161.85V260.3h23.26v13.06H568.57V260.3h22.75V175.18H568.57V161.85Z"/><path class="cls-4" d="M691.42,161.85V260.3h23.27v13.06H648.43V260.3h22.74V175.18H648.43V161.85Z"/><path class="cls-4" d="M777.81,188.78a15.91,15.91,0,0,1,13.07,6q4.83,6,4.83,19.07t-4.51,18.74q-4.5,5.67-13.39,5.67H747.62v7.52a50.59,50.59,0,0,0,.46,7.66,9.65,9.65,0,0,0,1.63,4.42,5.44,5.44,0,0,0,3.2,2,23,23,0,0,0,5,.46h30.59v13.06H748.8a29.16,29.16,0,0,1-9.81-1.45,14.84,14.84,0,0,1-6.66-4.68,21,21,0,0,1-3.86-8.51,58.1,58.1,0,0,1-1.24-13.07V216.36a57.35,57.35,0,0,1,1.24-12.94,21,21,0,0,1,3.86-8.51,14.84,14.84,0,0,1,6.66-4.68,29.16,29.16,0,0,1,9.81-1.45Zm-30.19,37.34h22a14.47,14.47,0,0,0,3.6-.39,4.2,4.2,0,0,0,2.42-1.72,9.16,9.16,0,0,0,1.3-3.76,41.87,41.87,0,0,0,.4-6.53,46.61,46.61,0,0,0-.33-6.27,8,8,0,0,0-1.18-3.5,3.77,3.77,0,0,0-2.35-1.52,18.52,18.52,0,0,0-3.86-.33h-14a10.15,10.15,0,0,0-3.92.66,5.09,5.09,0,0,0-2.48,2.25A11.16,11.16,0,0,0,748,209.3a57.73,57.73,0,0,0-.33,6.79Z"/><path class="cls-4" d="M872.82,202.1H842.24a33.83,33.83,0,0,0-6.21.47,6.43,6.43,0,0,0-3.79,2,9,9,0,0,0-1.83,4.69,59.35,59.35,0,0,0-.46,8.38v55.68H809.7V214.51q0-13.59,7.12-19.66t21.24-6.07h34.76Z"/><path class="cls-4" d="M905.23,188.78l18,55h.66l18.16-55h17.25l-42,116.65h-18l13.59-34.31-29.67-82.34Z"/></g></g></svg>